<?xml version="1.0" encoding="iso-8859-1"?>
<!-- Generator: Adobe Illustrator 19.0.0, SVG Export Plug-In . SVG Version: 6.00 Build 0)  -->
<svg version="1.1" id="Capa_1" xmlns="http://www.w3.org/2000/svg" xmlns:xlink="http://www.w3.org/1999/xlink" x="0px" y="0px"
	 viewBox="0 0 512.001 512.001" style="enable-background:new 0 0 512.001 512.001;" xml:space="preserve">
<path style="fill:#D4CBF6;" d="M256,0c-72.487,0-131.459,58.973-131.459,131.459v110.703c0,72.487,58.973,131.459,131.459,131.459
	s131.459-58.973,131.459-131.459V131.459C387.46,58.973,328.487,0,256,0z"/>
<path style="fill:#5B699C;" d="M449.73,186.349c-11.463,0-20.757,9.294-20.757,20.757v38.747
	c0,95.377-77.596,172.973-172.973,172.973S83.027,341.23,83.027,245.853v-38.747c0-11.463-9.295-20.757-20.757-20.757
	c-11.463,0-20.757,9.293-20.757,20.757v38.747c0,111.266,85.165,203.004,193.73,213.478v31.913c0,11.463,9.293,20.757,20.757,20.757
	c11.462,0,20.757-9.293,20.757-20.757v-31.911c108.565-10.474,193.73-102.212,193.73-213.478v-38.747
	C470.487,195.642,461.192,186.349,449.73,186.349z"/>
<path style="fill:#AB99EC;" d="M387.46,242.162V131.459C387.46,58.973,328.487,0,256,0v373.622
	C328.487,373.622,387.46,314.649,387.46,242.162z"/>
<path style="fill:#2D4175;" d="M449.73,186.349c-11.463,0-20.757,9.294-20.757,20.757v38.747
	c0,95.377-77.596,172.973-172.973,172.973V512c11.462,0,20.757-9.293,20.757-20.757v-31.911
	c108.565-10.474,193.73-102.212,193.73-213.478v-38.747C470.487,195.642,461.192,186.349,449.73,186.349z"/>
<g>
	<path style="fill:#9E8CEC;" d="M200.649,207.568h-55.351c-11.463,0-20.757,9.294-20.757,20.757s9.294,20.757,20.757,20.757h55.351
		c11.462,0,20.757-9.293,20.757-20.757C221.405,216.861,212.111,207.568,200.649,207.568z"/>
	<path style="fill:#9E8CEC;" d="M200.649,124.541h-55.351c-11.463,0-20.757,9.294-20.757,20.757s9.294,20.757,20.757,20.757h55.351
		c11.462,0,20.757-9.294,20.757-20.757S212.111,124.541,200.649,124.541z"/>
</g>
<g>
	<path style="fill:#6A56CF;" d="M366.703,207.568h-55.351c-11.463,0-20.757,9.294-20.757,20.757s9.293,20.757,20.757,20.757h55.351
		c11.462,0,20.757-9.293,20.757-20.757C387.46,216.861,378.165,207.568,366.703,207.568z"/>
	<path style="fill:#6A56CF;" d="M311.352,166.054h55.351c11.462,0,20.757-9.294,20.757-20.757s-9.295-20.757-20.757-20.757h-55.351
		c-11.463,0-20.757,9.294-20.757,20.757S299.888,166.054,311.352,166.054z"/>
</g>
<g>
</g>
<g>
</g>
<g>
</g>
<g>
</g>
<g>
</g>
<g>
</g>
<g>
</g>
<g>
</g>
<g>
</g>
<g>
</g>
<g>
</g>
<g>
</g>
<g>
</g>
<g>
</g>
<g>
</g>
</svg>
